<?xml version="1.0" encoding="UTF-8" standalone="no"?>
<!-- Created with Inkscape (http://www.inkscape.org/) -->

<svg
   xmlns:dc="http://purl.org/dc/elements/1.1/"
   xmlns:cc="http://creativecommons.org/ns#"
   xmlns:rdf="http://www.w3.org/1999/02/22-rdf-syntax-ns#"
   xmlns:svg="http://www.w3.org/2000/svg"
   xmlns="http://www.w3.org/2000/svg"
   version="1.1"
   width="50.400002"
   height="43.200001"
   viewBox="0 0 50.4 43.2"
   id="Layer_1"
   xml:space="preserve"><metadata
   id="metadata4137"><rdf:RDF><cc:Work
       rdf:about=""><dc:format>image/svg+xml</dc:format><dc:type
         rdf:resource="http://purl.org/dc/dcmitype/StillImage" /><dc:title></dc:title></cc:Work></rdf:RDF></metadata><defs
   id="defs4135" />
<path
   d="m 0,7.2 v 36 H 50.4 V 7.2 H 0 z M 3.601,37.35 C 2.855,37.35 2.25,36.746 2.25,36 c 0,-0.746 0.604,-1.351 1.351,-1.351 0.745,0 1.35,0.604 1.35,1.351 -10e-4,0.746 -0.605,1.35 -1.35,1.35 z m 0,-7.2 c -0.746,0 -1.351,-0.604 -1.351,-1.35 0,-0.746 0.604,-1.351 1.351,-1.351 0.745,0 1.35,0.604 1.35,1.351 -10e-4,0.745 -0.605,1.35 -1.35,1.35 z m 0,-7.2 c -0.746,0 -1.351,-0.604 -1.351,-1.35 0,-0.746 0.604,-1.351 1.351,-1.351 0.745,0 1.35,0.604 1.35,1.351 -10e-4,0.746 -0.605,1.35 -1.35,1.35 z m 0,-7.2 c -0.746,0 -1.351,-0.604 -1.351,-1.35 0,-0.746 0.604,-1.351 1.351,-1.351 0.745,0 1.35,0.604 1.35,1.351 -10e-4,0.746 -0.605,1.35 -1.35,1.35 z M 14.4,40.32 c -0.398,0 -0.721,-0.322 -0.721,-0.72 0,-0.398 0.322,-0.721 0.721,-0.721 0.397,0 0.72,0.322 0.72,0.721 0,0.398 -0.322,0.72 -0.72,0.72 z"
   id="path3943"
   style="fill:#cd2026" />
<polygon
   points="0,30.6 1.801,32.401 0,34.2 0,37.799 1.801,39.6 5.4,39.6 7.2,37.799 7.2,34.2 5.4,32.401 7.2,30.6 7.2,27 5.4,25.201 7.2,23.4 7.2,19.8 5.4,18.001 7.2,16.201 7.2,12.601 5.4,10.801 1.801,10.801 0,12.601 0,16.201 1.801,18.001 0,19.8 0,23.4 1.801,25.201 0,27 "
   id="polygon3945"
   style="fill:none;stroke:#dedad6;stroke-width:0.5;stroke-miterlimit:10" />
<path
   d="m 3.6,33.3 c -1.491,0 -2.7,1.209 -2.7,2.7 0,1.491 1.209,2.7 2.7,2.7 1.491,0 2.7,-1.209 2.7,-2.7 0,-1.491 -1.209,-2.7 -2.7,-2.7 z m 10e-4,4.051 c -0.746,0 -1.352,-0.605 -1.352,-1.35 0,-0.746 0.605,-1.352 1.352,-1.352 0.744,0 1.35,0.605 1.35,1.352 -10e-4,0.744 -0.606,1.35 -1.35,1.35 z"
   id="path3947"
   style="fill:#e5e5e5" />
<path
   d="m 3.6,26.1 c -1.491,0 -2.7,1.209 -2.7,2.7 0,1.491 1.209,2.7 2.7,2.7 1.491,0 2.7,-1.209 2.7,-2.7 0,-1.491 -1.209,-2.7 -2.7,-2.7 z m 10e-4,4.05 c -0.746,0 -1.352,-0.605 -1.352,-1.35 0,-0.746 0.605,-1.352 1.352,-1.352 0.744,0 1.35,0.605 1.35,1.352 -10e-4,0.745 -0.606,1.35 -1.35,1.35 z"
   id="path3949"
   style="fill:#e5e5e5" />
<path
   d="m 3.6,18.9 c -1.491,0 -2.7,1.209 -2.7,2.7 0,1.491 1.209,2.7 2.7,2.7 1.491,0 2.7,-1.209 2.7,-2.7 0,-1.491 -1.209,-2.7 -2.7,-2.7 z m 10e-4,4.051 c -0.746,0 -1.352,-0.605 -1.352,-1.35 0,-0.746 0.605,-1.352 1.352,-1.352 0.744,0 1.35,0.605 1.35,1.352 -10e-4,0.744 -0.606,1.35 -1.35,1.35 z"
   id="path3951"
   style="fill:#e5e5e5" />
<path
   d="m 0.899,11.7 v 5.4 h 5.4 v -5.4 h -5.4 z m 2.702,4.051 c -0.746,0 -1.351,-0.605 -1.351,-1.35 0,-0.746 0.604,-1.352 1.351,-1.352 0.745,0 1.35,0.605 1.35,1.352 -10e-4,0.745 -0.605,1.35 -1.35,1.35 z"
   id="path3953"
   style="fill:#e5e5e5" />
<g
   id="g3955">
	<path
   d="m 8.35,15.284 c 0,-0.007 0.002,-0.021 0.005,-0.045 0.007,-0.01 0.021,-0.025 0.043,-0.047 0.021,-0.022 0.034,-0.034 0.04,-0.038 0.005,-0.003 0.012,-0.006 0.022,-0.008 0.01,-0.001 0.018,-0.002 0.024,-0.002 0.006,0 0.016,0.002 0.026,0.002 0.01,0.002 0.017,0.003 0.02,0.003 0.014,0.026 0.044,0.062 0.09,0.107 0.047,0.045 0.098,0.091 0.153,0.138 0.055,0.047 0.108,0.088 0.162,0.125 0.054,0.037 0.094,0.06 0.12,0.07 0.003,0.003 0.023,0.006 0.06,0.01 0.037,0.003 0.079,0.007 0.125,0.01 0.047,0.004 0.094,0.006 0.141,0.008 0.046,0.002 0.085,0.002 0.114,0.002 0.018,0 0.046,0 0.088,-0.002 0.042,-0.002 0.085,-0.004 0.13,-0.008 0.045,-0.003 0.089,-0.007 0.13,-0.01 0.042,-0.004 0.071,-0.007 0.088,-0.01 0.01,-0.011 0.028,-0.027 0.055,-0.051 0.027,-0.022 0.055,-0.049 0.083,-0.077 0.028,-0.028 0.054,-0.056 0.077,-0.082 0.023,-0.027 0.04,-0.046 0.05,-0.056 0.011,-0.013 0.026,-0.041 0.048,-0.085 0.021,-0.043 0.034,-0.073 0.037,-0.09 0.004,-0.003 0.006,-0.021 0.008,-0.055 0.002,-0.034 0.003,-0.059 0.003,-0.075 0,-0.016 -10e-4,-0.042 -0.003,-0.075 -0.002,-0.033 -0.004,-0.052 -0.008,-0.055 0,-0.014 -0.012,-0.042 -0.035,-0.085 C 10.224,14.759 10.207,14.73 10.196,14.712 10.179,14.69 10.157,14.66 10.129,14.625 10.101,14.59 10.072,14.556 10.044,14.522 10.016,14.488 9.99,14.46 9.969,14.437 9.948,14.414 9.935,14.402 9.932,14.402 H 8.97 L 8.354,13.75 v -0.615 l 0.615,-0.61 h 1.225 c 0.004,0 0.016,0.011 0.038,0.033 0.021,0.021 0.037,0.039 0.047,0.052 0.014,0.017 0.033,0.042 0.061,0.078 0.026,0.035 0.054,0.071 0.082,0.107 0.028,0.036 0.055,0.071 0.078,0.103 0.022,0.032 0.038,0.052 0.045,0.062 0.006,0.017 0.021,0.047 0.045,0.09 0.023,0.043 0.036,0.072 0.04,0.085 0.003,0.003 0.005,0.012 0.005,0.025 0,0.01 0,0.018 0,0.025 0,0.007 0,0.015 0,0.025 0,0.01 -0.002,0.015 -0.005,0.015 -0.007,0.01 -0.021,0.026 -0.043,0.047 -0.022,0.021 -0.036,0.034 -0.042,0.038 -0.004,0.003 -0.018,0.006 -0.043,0.007 -0.024,0.002 -0.044,0.002 -0.058,0.002 -0.01,0 -0.024,0 -0.042,-0.002 -0.019,-10e-4 -0.029,-0.004 -0.033,-0.007 L 9.93,12.875 H 9.055 c -0.017,0 -0.042,0.013 -0.075,0.04 -0.033,0.027 -0.068,0.058 -0.104,0.095 -0.037,0.037 -0.072,0.075 -0.105,0.115 -0.033,0.04 -0.055,0.073 -0.064,0.1 0,0.003 -0.002,0.013 -0.006,0.03 -0.003,0.017 -0.006,0.037 -0.007,0.06 -0.002,0.023 -0.004,0.047 -0.005,0.07 -0.002,0.023 -0.003,0.042 -0.003,0.055 0,0.017 10e-4,0.037 0.003,0.06 10e-4,0.023 0.003,0.047 0.005,0.07 10e-4,0.023 0.004,0.044 0.007,0.062 0.004,0.019 0.006,0.029 0.006,0.033 0.013,0.03 0.035,0.066 0.067,0.11 0.031,0.043 0.066,0.086 0.104,0.127 0.038,0.042 0.074,0.078 0.107,0.107 0.033,0.03 0.057,0.045 0.07,0.045 h 1.14 c 0.007,0.01 0.021,0.032 0.043,0.067 0.021,0.035 0.035,0.058 0.042,0.067 0.007,0.009 0.023,0.032 0.051,0.065 0.026,0.033 0.055,0.069 0.085,0.108 0.029,0.038 0.057,0.074 0.082,0.109 0.025,0.035 0.041,0.058 0.048,0.068 0.006,0.01 0.015,0.023 0.024,0.039 0.011,0.018 0.02,0.035 0.027,0.055 0.009,0.021 0.017,0.038 0.022,0.053 0.007,0.016 0.011,0.024 0.011,0.027 0,0.004 10e-4,0.018 0.002,0.043 0.002,0.025 0.004,0.054 0.005,0.085 0.002,0.032 0.003,0.064 0.003,0.098 0,0.034 0,0.06 0,0.08 0,0.02 0,0.047 0,0.08 0,0.033 -0.001,0.066 -0.003,0.1 -0.001,0.033 -0.003,0.062 -0.005,0.085 -10e-4,0.023 -0.002,0.037 -0.002,0.04 0,0.01 -0.011,0.038 -0.033,0.083 -0.021,0.045 -0.039,0.075 -0.052,0.092 -0.007,0.011 -0.022,0.031 -0.045,0.062 -0.023,0.032 -0.05,0.066 -0.078,0.103 -0.028,0.037 -0.056,0.073 -0.082,0.107 -0.027,0.035 -0.047,0.062 -0.061,0.078 -0.01,0.017 -0.025,0.036 -0.047,0.058 -0.022,0.021 -0.034,0.032 -0.038,0.032 H 8.97 C 8.56,15.528 8.354,15.318 8.353,15.308 8.351,15.3 8.35,15.291 8.35,15.284 z"
   id="path3957"
   style="fill:#e5e5e5;stroke:#e5e5e5;stroke-width:0.25;stroke-miterlimit:10" />
	<path
   d="m 11.29,12.699 c 0,-0.006 0.011,-0.021 0.032,-0.045 0.021,-0.023 0.037,-0.037 0.045,-0.04 0.009,-0.003 0.018,-0.005 0.028,-0.007 0.01,-10e-4 0.018,-0.002 0.024,-0.002 0.006,0 0.021,10e-4 0.045,0.005 0.021,0.007 0.047,0.022 0.08,0.045 0.033,0.023 0.05,0.039 0.05,0.045 v 2.936 h 1.886 c 0.006,0 0.021,0.017 0.042,0.05 0.021,0.033 0.036,0.06 0.043,0.08 0.003,0 0.005,0.007 0.005,0.02 0,0.011 0,0.019 0,0.025 0,0.006 0,0.015 0,0.024 0,0.011 -0.002,0.016 -0.005,0.016 -0.007,0.017 -0.021,0.036 -0.043,0.058 -0.022,0.022 -0.036,0.032 -0.042,0.032 h -2.19 v -3.242 z"
   id="path3959"
   style="fill:#e5e5e5;stroke:#e5e5e5;stroke-width:0.25;stroke-miterlimit:10" />
	<path
   d="m 14.22,12.614 h 2.275 c 0.006,0 0.021,0.011 0.045,0.033 0.024,0.022 0.038,0.039 0.045,0.052 v 0.045 0.045 c -0.01,0.02 -0.026,0.046 -0.048,0.08 -0.021,0.033 -0.036,0.05 -0.042,0.05 h -1.926 v 1.225 h 0.875 c 0.007,0 0.021,0.018 0.043,0.052 0.021,0.035 0.037,0.061 0.048,0.078 v 0.045 0.045 c -0.011,0.02 -0.026,0.047 -0.048,0.08 -0.022,0.033 -0.036,0.051 -0.043,0.051 h -0.875 v 1.14 h 1.926 c 0.006,0 0.021,0.017 0.042,0.05 0.021,0.033 0.038,0.06 0.048,0.08 v 0.045 0.04 c -0.007,0.017 -0.021,0.036 -0.045,0.058 -0.024,0.022 -0.039,0.032 -0.045,0.032 H 14.22 v -3.326 z"
   id="path3961"
   style="fill:#e5e5e5;stroke:#e5e5e5;stroke-width:0.25;stroke-miterlimit:10" />
	<path
   d="m 17.234,12.614 h 2.275 c 0.006,0 0.021,0.011 0.045,0.033 0.024,0.022 0.038,0.039 0.045,0.052 v 0.045 0.045 c -0.01,0.02 -0.026,0.046 -0.048,0.08 -0.021,0.033 -0.036,0.05 -0.042,0.05 h -1.926 v 1.225 h 0.875 c 0.007,0 0.021,0.018 0.043,0.052 0.021,0.035 0.037,0.061 0.048,0.078 v 0.045 0.045 c -0.011,0.02 -0.026,0.047 -0.048,0.08 -0.022,0.033 -0.036,0.051 -0.043,0.051 h -0.875 v 1.14 h 1.926 c 0.006,0 0.021,0.017 0.042,0.05 0.021,0.033 0.038,0.06 0.048,0.08 v 0.045 0.04 c -0.007,0.017 -0.021,0.036 -0.045,0.058 -0.024,0.022 -0.039,0.032 -0.045,0.032 h -2.275 v -3.326 z"
   id="path3963"
   style="fill:#e5e5e5;stroke:#e5e5e5;stroke-width:0.25;stroke-miterlimit:10" />
	<path
   d="m 20.25,12.609 c 0,-0.006 0.011,-0.021 0.032,-0.042 0.021,-0.021 0.037,-0.034 0.045,-0.038 0.009,-0.003 0.018,-0.006 0.028,-0.007 0.01,-10e-4 0.018,-0.002 0.024,-0.002 0.006,0 0.021,0.001 0.045,0.005 0.021,0.007 0.047,0.021 0.08,0.042 0.033,0.022 0.05,0.036 0.05,0.042 v 2.104 l 0.835,0.785 h 0.085 c 0.117,-0.14 0.238,-0.285 0.365,-0.438 0.127,-0.151 0.254,-0.297 0.38,-0.438 v -2.015 c 0,-0.003 0.018,-0.017 0.053,-0.04 0.035,-0.023 0.061,-0.038 0.077,-0.045 0.004,0 0.011,-10e-4 0.021,-0.002 0.01,-10e-4 0.019,-0.002 0.024,-0.002 0.007,0 0.022,10e-4 0.046,0.005 0.013,0.007 0.03,0.021 0.052,0.042 0.021,0.022 0.033,0.036 0.033,0.042 v 2.19 c 0,0.003 -0.011,0.018 -0.03,0.045 -0.021,0.026 -0.044,0.059 -0.07,0.098 -0.026,0.038 -0.055,0.076 -0.085,0.114 -0.03,0.039 -0.055,0.069 -0.075,0.093 -0.02,0.026 -0.052,0.065 -0.095,0.117 -0.043,0.052 -0.088,0.106 -0.135,0.163 -0.047,0.057 -0.09,0.108 -0.13,0.154 -0.04,0.047 -0.067,0.077 -0.08,0.091 -0.017,0.017 -0.038,0.04 -0.065,0.069 -0.026,0.03 -0.053,0.059 -0.08,0.085 -0.026,0.027 -0.052,0.051 -0.074,0.073 -0.023,0.021 -0.037,0.034 -0.04,0.037 -0.004,0.003 -0.018,0.007 -0.04,0.01 -0.023,0.004 -0.042,0.005 -0.056,0.005 -0.01,0 -0.024,-0.001 -0.045,-0.005 -0.02,-0.003 -0.031,-0.007 -0.035,-0.01 l -1.14,-1.14 v -2.187 z"
   id="path3965"
   style="fill:#e5e5e5;stroke:#e5e5e5;stroke-width:0.25;stroke-miterlimit:10" />
	<path
   d="m 23.175,12.614 h 2.275 c 0.006,0 0.021,0.011 0.045,0.033 0.024,0.022 0.038,0.039 0.045,0.052 v 0.045 0.045 c -0.01,0.02 -0.026,0.046 -0.048,0.08 -0.021,0.033 -0.036,0.05 -0.042,0.05 h -1.926 v 1.225 h 0.875 c 0.007,0 0.021,0.018 0.043,0.052 0.021,0.035 0.037,0.061 0.048,0.078 v 0.045 0.045 c -0.011,0.02 -0.026,0.047 -0.048,0.08 -0.022,0.033 -0.036,0.051 -0.043,0.051 h -0.875 v 1.14 h 1.926 c 0.006,0 0.021,0.017 0.042,0.05 0.021,0.033 0.038,0.06 0.048,0.08 v 0.045 0.04 c -0.007,0.017 -0.021,0.036 -0.045,0.058 -0.024,0.022 -0.039,0.032 -0.045,0.032 h -2.275 v -3.326 z"
   id="path3967"
   style="fill:#e5e5e5;stroke:#e5e5e5;stroke-width:0.25;stroke-miterlimit:10" />
</g>
<g
   id="g3969">
	<path
   d="m 10.1,19.724 0.615,0.615 v 1.225 c 0,0.004 -0.01,0.016 -0.03,0.037 -0.02,0.022 -0.044,0.047 -0.072,0.073 -0.028,0.026 -0.058,0.054 -0.088,0.083 -0.03,0.027 -0.055,0.051 -0.075,0.066 -0.017,0.018 -0.046,0.042 -0.087,0.075 -0.042,0.034 -0.085,0.068 -0.13,0.105 -0.045,0.036 -0.089,0.071 -0.13,0.104 -0.042,0.033 -0.071,0.056 -0.088,0.065 0.467,0.526 0.701,0.795 0.702,0.805 0.002,0.01 0.003,0.019 0.003,0.025 0,0.006 -0.002,0.021 -0.005,0.045 -0.007,0.01 -0.021,0.025 -0.043,0.047 -0.021,0.022 -0.037,0.036 -0.047,0.043 -0.004,0 -0.011,0.001 -0.021,0.003 -0.01,10e-4 -0.019,0.002 -0.024,0.002 -0.007,0 -0.021,-0.002 -0.04,-0.005 L 9.489,22.172 H 8.654 v 0.875 c 0,0.007 -0.017,0.021 -0.05,0.045 -0.033,0.024 -0.06,0.038 -0.08,0.045 -0.003,0 -0.01,0.001 -0.02,0.003 -0.011,10e-4 -0.019,0.002 -0.025,0.002 -0.006,0 -0.02,-0.002 -0.04,-0.005 C 8.422,23.13 8.403,23.116 8.381,23.092 8.359,23.068 8.35,23.056 8.35,23.049 V 19.724 H 10.1 z M 8.699,21.74 c 0.817,0 1.239,-0.011 1.268,-0.031 0.028,-0.02 0.062,-0.043 0.098,-0.072 0.037,-0.027 0.074,-0.057 0.112,-0.087 0.039,-0.03 0.071,-0.055 0.098,-0.075 0.014,-0.01 0.032,-0.026 0.056,-0.047 0.022,-0.022 0.034,-0.034 0.034,-0.038 v -0.965 l -0.35,-0.35 H 8.699 v 1.665 z"
   id="path3971"
   style="fill:#e5e5e5;stroke:#e5e5e5;stroke-width:0.25;stroke-miterlimit:10" />
	<path
   d="m 11.369,23.009 c 0,-0.007 0.002,-0.021 0.005,-0.045 0.007,-0.01 0.021,-0.026 0.043,-0.048 0.021,-0.021 0.037,-0.035 0.047,-0.042 0.014,-0.004 0.036,-0.011 0.067,-0.021 0.032,-0.01 0.067,-0.019 0.105,-0.027 0.038,-0.008 0.074,-0.017 0.107,-0.025 0.033,-0.008 0.057,-0.012 0.07,-0.012 v -2.625 c -0.014,0 -0.037,-0.004 -0.07,-0.012 C 11.71,20.144 11.674,20.135 11.636,20.127 11.598,20.119 11.563,20.11 11.531,20.1 11.5,20.09 11.477,20.082 11.464,20.075 c -0.01,-0.003 -0.025,-0.016 -0.047,-0.038 -0.022,-0.021 -0.034,-0.035 -0.038,-0.04 -0.003,-0.005 -0.006,-0.013 -0.007,-0.025 -0.002,-0.012 -0.003,-0.021 -0.003,-0.027 0,-0.007 10e-4,-0.015 0.003,-0.025 10e-4,-0.01 0.002,-0.017 0.002,-0.02 0.007,-0.013 0.021,-0.031 0.045,-0.052 0.024,-0.021 0.038,-0.033 0.045,-0.033 H 12.6 c 0.006,0 0.021,0.011 0.045,0.033 0.022,0.021 0.038,0.039 0.045,0.052 v 0.045 0.045 c -0.007,0.01 -0.022,0.026 -0.045,0.047 -0.023,0.022 -0.039,0.034 -0.045,0.038 -0.014,0.007 -0.036,0.015 -0.068,0.025 -0.031,0.01 -0.066,0.019 -0.104,0.027 -0.038,0.009 -0.074,0.017 -0.107,0.025 -0.033,0.008 -0.057,0.012 -0.07,0.012 v 2.625 c 0.014,0 0.037,0.004 0.07,0.012 0.033,0.009 0.069,0.018 0.107,0.025 0.038,0.009 0.073,0.018 0.104,0.027 0.032,0.01 0.055,0.017 0.068,0.021 0.006,0.007 0.021,0.021 0.045,0.042 0.022,0.021 0.038,0.038 0.045,0.048 v 0.045 0.04 c -0.007,0.017 -0.022,0.036 -0.045,0.058 -0.023,0.021 -0.039,0.032 -0.045,0.032 h -1.136 c -0.007,0 -0.021,-0.011 -0.045,-0.032 -0.024,-0.021 -0.036,-0.037 -0.04,-0.045 -0.003,-0.009 -0.006,-0.018 -0.007,-0.028 -0.002,-0.01 -0.003,-0.018 -0.003,-0.025 z"
   id="path3973"
   style="fill:#e5e5e5;stroke:#e5e5e5;stroke-width:0.25;stroke-miterlimit:10" />
	<path
   d="m 13.475,19.719 c 0.007,0 0.016,0 0.025,0 0.009,0 0.015,10e-4 0.015,0.005 0.007,0.007 0.02,0.018 0.038,0.033 0.018,0.015 0.036,0.032 0.055,0.05 0.019,0.019 0.035,0.037 0.05,0.055 0.015,0.018 0.026,0.031 0.032,0.037 l 1.49,2.275 0.13,0.09 v -2.455 c 0,-0.003 0.018,-0.017 0.053,-0.04 0.035,-0.023 0.061,-0.038 0.077,-0.045 0.004,0 0.011,-0.001 0.021,-0.002 0.01,-0.001 0.019,-0.002 0.024,-0.002 0.007,0 0.022,0.001 0.046,0.005 0.013,0.007 0.03,0.021 0.052,0.042 0.021,0.022 0.033,0.036 0.033,0.042 v 3.24 c 0,0.007 -0.012,0.021 -0.033,0.045 -0.021,0.024 -0.039,0.038 -0.052,0.045 -0.004,0 -0.011,0.001 -0.021,0.003 -0.01,0.001 -0.019,0.002 -0.025,0.002 -0.006,0 -0.015,-10e-4 -0.024,-0.002 -0.01,-0.002 -0.017,-0.003 -0.021,-0.003 -0.006,-0.003 -0.019,-0.014 -0.037,-0.03 -0.018,-0.016 -0.037,-0.034 -0.055,-0.052 -0.019,-0.019 -0.036,-0.037 -0.053,-0.056 -0.017,-0.019 -0.026,-0.03 -0.03,-0.037 l -1.484,-2.28 -0.136,-0.085 v 2.45 c 0,0.007 -0.017,0.021 -0.05,0.045 -0.033,0.024 -0.055,0.037 -0.064,0.04 -0.011,0.003 -0.021,0.006 -0.033,0.008 -0.012,0.001 -0.021,0.002 -0.027,0.002 -0.006,0 -0.02,-0.002 -0.04,-0.005 -0.017,-0.007 -0.036,-0.021 -0.058,-0.045 -0.022,-0.024 -0.032,-0.038 -0.032,-0.045 v -3.24 c 0,-0.006 0.011,-0.021 0.032,-0.042 0.021,-0.021 0.041,-0.036 0.058,-0.042 0,-0.003 0.005,-0.005 0.016,-0.005 0.011,-10e-4 0.021,-10e-4 0.028,-10e-4 z"
   id="path3975"
   style="fill:#e5e5e5;stroke:#e5e5e5;stroke-width:0.25;stroke-miterlimit:10" />
	<path
   d="m 16.88,19.814 h 1.135 l 0.615,0.61 c 0,0.003 0.001,0.01 0.002,0.02 0.002,0.01 0.003,0.018 0.003,0.025 0,0.007 -0.001,0.015 -0.003,0.025 -0.001,0.01 -0.002,0.017 -0.002,0.02 -0.007,0.01 -0.021,0.026 -0.043,0.047 -0.021,0.022 -0.037,0.034 -0.047,0.038 -0.004,0.003 -0.011,0.006 -0.021,0.007 -0.01,0.002 -0.019,0.003 -0.024,0.003 -0.007,0 -0.016,-0.001 -0.025,-0.003 -0.01,-0.001 -0.015,-0.004 -0.015,-0.007 L 17.93,20.164 h -0.965 l -0.351,0.35 v 1.925 c 0,0.004 0.011,0.016 0.03,0.038 0.021,0.021 0.044,0.046 0.072,0.074 0.028,0.028 0.058,0.057 0.088,0.085 0.03,0.028 0.055,0.05 0.075,0.062 0.017,0.014 0.047,0.032 0.09,0.056 0.043,0.024 0.071,0.035 0.085,0.035 0.003,0 0.021,0 0.053,0.002 0.031,0.002 0.067,0.003 0.107,0.003 0.043,0 0.086,0.001 0.127,0.002 0.042,0.002 0.076,0.003 0.103,0.003 0.027,0 0.062,-0.001 0.105,-0.003 0.043,-10e-4 0.085,-0.002 0.125,-0.002 0.043,0 0.081,-0.001 0.112,-0.003 0.031,-0.002 0.049,-0.002 0.053,-0.002 0.003,0 0.013,-0.004 0.03,-0.011 0.017,-0.006 0.033,-0.015 0.052,-0.024 0.019,-0.009 0.037,-0.021 0.056,-0.03 0.018,-0.01 0.03,-0.019 0.037,-0.025 0.02,-0.013 0.045,-0.034 0.075,-0.062 0.03,-0.028 0.059,-0.057 0.087,-0.085 0.028,-0.028 0.053,-0.053 0.073,-0.074 0.02,-0.022 0.029,-0.034 0.029,-0.038 v -0.744 h -0.875 c -0.007,0 -0.021,-0.018 -0.045,-0.051 -0.024,-0.033 -0.038,-0.061 -0.045,-0.08 0,-0.003 -10e-4,-0.01 -0.002,-0.02 -0.002,-0.01 -0.003,-0.019 -0.003,-0.025 0,-0.006 0.001,-0.015 0.003,-0.025 0.001,-0.01 0.002,-0.017 0.002,-0.02 0.007,-0.013 0.021,-0.031 0.045,-0.052 0.023,-0.022 0.038,-0.033 0.045,-0.033 h 1.226 v 1.31 c 0,0.007 -0.012,0.021 -0.035,0.043 -0.023,0.022 -0.042,0.037 -0.055,0.048 -0.018,0.013 -0.043,0.033 -0.078,0.06 -0.035,0.027 -0.07,0.054 -0.107,0.08 -0.036,0.026 -0.07,0.052 -0.103,0.075 -0.031,0.023 -0.053,0.038 -0.062,0.045 -0.009,0.007 -0.024,0.015 -0.042,0.024 -0.019,0.011 -0.037,0.021 -0.056,0.03 -0.018,0.01 -0.034,0.019 -0.05,0.025 -0.015,0.007 -0.024,0.01 -0.027,0.01 H 16.88 c -0.004,0 -0.013,-0.003 -0.027,-0.01 -0.016,-0.007 -0.033,-0.016 -0.053,-0.025 -0.021,-0.01 -0.038,-0.02 -0.055,-0.03 -0.018,-0.01 -0.03,-0.018 -0.04,-0.024 C 16.694,23.044 16.674,23.03 16.643,23.006 16.611,22.983 16.577,22.957 16.54,22.931 16.503,22.905 16.467,22.877 16.433,22.851 16.398,22.825 16.371,22.804 16.355,22.791 16.338,22.78 16.319,22.765 16.297,22.743 16.275,22.721 16.265,22.707 16.265,22.7 v -2.274 l 0.615,-0.612 z"
   id="path3977"
   style="fill:#e5e5e5;stroke:#e5e5e5;stroke-width:0.25;stroke-miterlimit:10" />
	<path
   d="m 21.384,20.949 c 0.004,-0.007 0.009,-0.035 0.016,-0.085 0.007,-0.05 0.01,-0.088 0.01,-0.115 0,-0.013 -0.001,-0.032 -0.003,-0.057 -0.001,-0.025 -0.004,-0.05 -0.007,-0.075 -0.004,-0.025 -0.007,-0.047 -0.01,-0.067 -0.004,-0.02 -0.006,-0.032 -0.006,-0.035 -0.013,-0.027 -0.035,-0.06 -0.067,-0.1 -0.031,-0.04 -0.066,-0.078 -0.104,-0.115 -0.039,-0.037 -0.074,-0.068 -0.107,-0.095 -0.033,-0.026 -0.057,-0.04 -0.07,-0.04 H 20.071 L 19.546,20.6 c 0,0.003 -0.005,0.006 -0.015,0.007 -0.01,0.002 -0.019,0.003 -0.025,0.003 -0.006,0 -0.016,-10e-4 -0.027,-0.003 -0.012,-10e-4 -0.018,-0.004 -0.018,-0.007 -0.01,-0.003 -0.025,-0.016 -0.047,-0.038 -0.022,-0.021 -0.036,-0.038 -0.043,-0.047 0,-0.003 -10e-4,-0.01 -0.003,-0.02 -10e-4,-0.01 -0.002,-0.018 -0.002,-0.025 0,-0.007 0.001,-0.015 0.002,-0.025 0.002,-0.01 0.003,-0.017 0.003,-0.02 l 0.615,-0.61 h 1.135 l 0.615,0.61 v 0.7 l -1.575,1.71 h 1.485 c 0.006,0 0.021,0.017 0.042,0.05 0.021,0.033 0.038,0.06 0.048,0.08 v 0.045 0.04 c -0.007,0.017 -0.021,0.036 -0.045,0.058 -0.024,0.022 -0.039,0.032 -0.045,0.032 h -2.36 l 2.098,-2.191 z"
   id="path3979"
   style="fill:#e5e5e5;stroke:#e5e5e5;stroke-width:0.25;stroke-miterlimit:10" />
</g>
<g
   id="g3981">
	<path
   d="m 10.1,26.923 0.615,0.615 v 1.225 c 0,0.004 -0.01,0.016 -0.03,0.037 -0.02,0.022 -0.044,0.047 -0.072,0.073 -0.028,0.026 -0.058,0.054 -0.088,0.083 -0.03,0.027 -0.055,0.051 -0.075,0.066 -0.017,0.018 -0.046,0.042 -0.087,0.075 -0.042,0.034 -0.085,0.068 -0.13,0.105 -0.045,0.036 -0.089,0.071 -0.13,0.104 -0.042,0.033 -0.071,0.056 -0.088,0.065 0.467,0.526 0.701,0.795 0.702,0.805 0.002,0.01 0.003,0.019 0.003,0.025 0,0.006 -0.002,0.021 -0.005,0.045 -0.007,0.01 -0.021,0.025 -0.043,0.047 -0.021,0.022 -0.037,0.036 -0.047,0.043 -0.004,0 -0.011,0.001 -0.021,0.003 -0.01,0.001 -0.019,0.002 -0.024,0.002 -0.007,0 -0.021,-0.002 -0.04,-0.005 L 9.489,29.371 H 8.654 v 0.875 c 0,0.007 -0.017,0.021 -0.05,0.045 -0.033,0.024 -0.06,0.038 -0.08,0.045 -0.003,0 -0.01,0.001 -0.02,0.003 -0.011,0.001 -0.019,0.002 -0.025,0.002 -0.006,0 -0.02,-0.002 -0.04,-0.005 C 8.422,30.329 8.403,30.315 8.381,30.291 8.359,30.267 8.35,30.255 8.35,30.249 v -3.325 h 1.75 z m -1.401,2.016 c 0.817,0 1.239,-0.011 1.268,-0.031 0.028,-0.02 0.062,-0.043 0.098,-0.072 0.037,-0.027 0.074,-0.057 0.112,-0.087 0.039,-0.03 0.071,-0.055 0.098,-0.075 0.014,-0.01 0.032,-0.026 0.056,-0.047 0.022,-0.022 0.034,-0.034 0.034,-0.038 v -0.965 l -0.35,-0.35 H 8.699 v 1.665 z"
   id="path3983"
   style="fill:#e5e5e5;stroke:#e5e5e5;stroke-width:0.25;stroke-miterlimit:10" />
	<path
   d="m 11.369,30.208 c 0,-0.007 0.002,-0.021 0.005,-0.045 0.007,-0.01 0.021,-0.026 0.043,-0.048 0.021,-0.021 0.037,-0.035 0.047,-0.042 0.014,-0.004 0.036,-0.011 0.067,-0.021 0.032,-0.01 0.067,-0.019 0.105,-0.027 0.038,-0.008 0.074,-0.017 0.107,-0.025 0.033,-0.008 0.057,-0.012 0.07,-0.012 v -2.625 c -0.014,0 -0.037,-0.004 -0.07,-0.012 -0.033,-0.008 -0.069,-0.017 -0.107,-0.025 -0.038,-0.008 -0.073,-0.017 -0.105,-0.027 -0.031,-0.01 -0.054,-0.018 -0.067,-0.025 -0.01,-0.003 -0.025,-0.016 -0.047,-0.038 -0.022,-0.021 -0.034,-0.035 -0.038,-0.04 -0.003,-0.005 -0.006,-0.013 -0.007,-0.025 -0.002,-0.012 -0.003,-0.021 -0.003,-0.027 0,-0.007 10e-4,-0.015 0.003,-0.025 10e-4,-0.01 0.002,-0.017 0.002,-0.02 0.007,-0.013 0.021,-0.031 0.045,-0.052 0.024,-0.021 0.038,-0.033 0.045,-0.033 H 12.6 c 0.006,0 0.021,0.011 0.045,0.033 0.022,0.021 0.038,0.039 0.045,0.052 v 0.045 0.045 c -0.007,0.01 -0.022,0.026 -0.045,0.047 -0.023,0.022 -0.039,0.034 -0.045,0.038 -0.014,0.007 -0.036,0.015 -0.068,0.025 -0.031,0.01 -0.066,0.019 -0.104,0.027 -0.038,0.009 -0.074,0.017 -0.107,0.025 -0.033,0.008 -0.057,0.012 -0.07,0.012 v 2.625 c 0.014,0 0.037,0.004 0.07,0.012 0.033,0.009 0.069,0.018 0.107,0.025 0.038,0.009 0.073,0.018 0.104,0.027 0.032,0.01 0.055,0.017 0.068,0.021 0.006,0.007 0.021,0.021 0.045,0.042 0.022,0.021 0.038,0.038 0.045,0.048 v 0.045 0.04 c -0.007,0.017 -0.022,0.036 -0.045,0.058 -0.023,0.021 -0.039,0.032 -0.045,0.032 h -1.136 c -0.007,0 -0.021,-0.011 -0.045,-0.032 -0.024,-0.021 -0.036,-0.037 -0.04,-0.045 -0.003,-0.009 -0.006,-0.018 -0.007,-0.028 -0.002,-0.01 -0.003,-0.018 -0.003,-0.025 z"
   id="path3985"
   style="fill:#e5e5e5;stroke:#e5e5e5;stroke-width:0.25;stroke-miterlimit:10" />
	<path
   d="m 13.475,26.918 c 0.007,0 0.016,0 0.025,0 0.009,0 0.015,0.001 0.015,0.005 0.007,0.007 0.02,0.018 0.038,0.033 0.018,0.015 0.036,0.032 0.055,0.05 0.019,0.019 0.035,0.037 0.05,0.055 0.015,0.018 0.026,0.031 0.032,0.037 l 1.49,2.275 0.13,0.09 v -2.455 c 0,-0.003 0.018,-0.017 0.053,-0.04 0.035,-0.023 0.061,-0.038 0.077,-0.045 0.004,0 0.011,-10e-4 0.021,-0.002 0.01,-10e-4 0.019,-0.002 0.024,-0.002 0.007,0 0.022,0.001 0.046,0.005 0.013,0.007 0.03,0.021 0.052,0.042 0.021,0.022 0.033,0.036 0.033,0.042 v 3.24 c 0,0.007 -0.012,0.021 -0.033,0.045 -0.021,0.024 -0.039,0.038 -0.052,0.045 -0.004,0 -0.011,10e-4 -0.021,0.003 -0.01,10e-4 -0.019,0.002 -0.025,0.002 -0.006,0 -0.015,-0.001 -0.024,-0.002 -0.01,-0.002 -0.017,-0.003 -0.021,-0.003 -0.006,-0.003 -0.019,-0.014 -0.037,-0.03 -0.018,-0.016 -0.037,-0.034 -0.055,-0.052 -0.019,-0.019 -0.036,-0.037 -0.053,-0.056 -0.017,-0.019 -0.026,-0.03 -0.03,-0.037 l -1.484,-2.28 -0.136,-0.085 v 2.45 c 0,0.007 -0.017,0.021 -0.05,0.045 -0.033,0.024 -0.055,0.037 -0.064,0.04 -0.011,0.003 -0.021,0.006 -0.033,0.008 -0.012,10e-4 -0.021,0.002 -0.027,0.002 -0.006,0 -0.02,-0.002 -0.04,-0.005 -0.017,-0.007 -0.036,-0.021 -0.058,-0.045 -0.022,-0.024 -0.032,-0.038 -0.032,-0.045 v -3.24 c 0,-0.006 0.011,-0.021 0.032,-0.042 0.021,-0.021 0.041,-0.036 0.058,-0.042 0,-0.003 0.005,-0.005 0.016,-0.005 0.011,-0.001 0.021,-0.001 0.028,-0.001 z"
   id="path3987"
   style="fill:#e5e5e5;stroke:#e5e5e5;stroke-width:0.25;stroke-miterlimit:10" />
	<path
   d="m 16.88,27.013 h 1.135 l 0.615,0.61 c 0,0.003 0.001,0.01 0.002,0.02 0.002,0.01 0.003,0.018 0.003,0.025 0,0.007 -0.001,0.015 -0.003,0.025 -0.001,0.01 -0.002,0.017 -0.002,0.02 -0.007,0.01 -0.021,0.026 -0.043,0.047 -0.021,0.022 -0.037,0.034 -0.047,0.038 -0.004,0.003 -0.011,0.006 -0.021,0.007 -0.01,0.002 -0.019,0.003 -0.024,0.003 -0.007,0 -0.016,-0.001 -0.025,-0.003 -0.01,-0.001 -0.015,-0.004 -0.015,-0.007 L 17.93,27.363 h -0.965 l -0.351,0.35 v 1.925 c 0,0.004 0.011,0.016 0.03,0.038 0.021,0.021 0.044,0.046 0.072,0.074 0.028,0.028 0.058,0.057 0.088,0.085 0.03,0.028 0.055,0.05 0.075,0.062 0.017,0.014 0.047,0.032 0.09,0.056 0.043,0.024 0.071,0.035 0.085,0.035 0.003,0 0.021,0 0.053,0.002 0.031,0.002 0.067,0.003 0.107,0.003 0.043,0 0.086,0.001 0.127,0.002 0.042,0.002 0.076,0.003 0.103,0.003 0.027,0 0.062,-0.001 0.105,-0.003 0.043,-0.001 0.085,-0.002 0.125,-0.002 0.043,0 0.081,-10e-4 0.112,-0.003 0.031,-0.002 0.049,-0.002 0.053,-0.002 0.003,0 0.013,-0.004 0.03,-0.011 0.017,-0.006 0.033,-0.015 0.052,-0.024 0.019,-0.009 0.037,-0.021 0.056,-0.03 0.018,-0.01 0.03,-0.019 0.037,-0.025 0.02,-0.013 0.045,-0.034 0.075,-0.062 0.03,-0.028 0.059,-0.057 0.087,-0.085 0.028,-0.028 0.053,-0.053 0.073,-0.074 0.02,-0.022 0.029,-0.034 0.029,-0.038 v -0.744 h -0.875 c -0.007,0 -0.021,-0.018 -0.045,-0.051 -0.024,-0.033 -0.038,-0.061 -0.045,-0.08 0,-0.003 -10e-4,-0.01 -0.002,-0.02 -0.002,-0.01 -0.003,-0.019 -0.003,-0.025 0,-0.006 0.001,-0.015 0.003,-0.025 0.001,-0.01 0.002,-0.017 0.002,-0.02 0.007,-0.013 0.021,-0.031 0.045,-0.052 0.023,-0.022 0.038,-0.033 0.045,-0.033 h 1.226 v 1.31 c 0,0.007 -0.012,0.021 -0.035,0.043 -0.023,0.022 -0.042,0.037 -0.055,0.048 -0.018,0.013 -0.043,0.033 -0.078,0.06 -0.035,0.027 -0.07,0.054 -0.107,0.08 -0.036,0.026 -0.07,0.052 -0.103,0.075 -0.031,0.023 -0.053,0.038 -0.062,0.045 -0.009,0.007 -0.024,0.015 -0.042,0.024 -0.019,0.011 -0.037,0.021 -0.056,0.03 -0.018,0.01 -0.034,0.019 -0.05,0.025 -0.015,0.007 -0.024,0.01 -0.027,0.01 H 16.88 c -0.004,0 -0.013,-0.003 -0.027,-0.01 -0.016,-0.007 -0.033,-0.016 -0.053,-0.025 -0.021,-0.01 -0.038,-0.02 -0.055,-0.03 -0.018,-0.01 -0.03,-0.018 -0.04,-0.024 C 16.694,30.243 16.674,30.229 16.643,30.205 16.611,30.182 16.577,30.156 16.54,30.13 16.503,30.104 16.467,30.076 16.433,30.05 16.398,30.024 16.371,30.003 16.355,29.99 16.338,29.979 16.319,29.964 16.297,29.942 16.275,29.92 16.265,29.906 16.265,29.899 v -2.274 l 0.615,-0.612 z"
   id="path3989"
   style="fill:#e5e5e5;stroke:#e5e5e5;stroke-width:0.25;stroke-miterlimit:10" />
	<path
   d="m 19.284,30.208 c 0,-0.007 0.002,-0.021 0.005,-0.045 0.007,-0.01 0.021,-0.026 0.043,-0.048 0.021,-0.021 0.037,-0.035 0.047,-0.042 0.014,-0.004 0.036,-0.011 0.067,-0.021 0.032,-0.01 0.067,-0.019 0.105,-0.027 0.038,-0.008 0.074,-0.017 0.107,-0.025 0.033,-0.008 0.057,-0.012 0.07,-0.012 v -2.365 c -0.011,0.01 -0.027,0.023 -0.053,0.04 -0.026,0.017 -0.051,0.034 -0.077,0.052 -0.027,0.019 -0.054,0.036 -0.08,0.053 -0.027,0.017 -0.045,0.026 -0.056,0.03 -0.003,0.003 -0.01,0.005 -0.02,0.005 -0.01,0 -0.019,0 -0.025,0 -0.006,0 -0.015,0 -0.024,0 -0.011,0 -0.016,-0.001 -0.016,-0.005 -0.01,-0.003 -0.025,-0.016 -0.047,-0.038 -0.022,-0.021 -0.036,-0.038 -0.043,-0.047 0,-0.003 -10e-4,-0.01 -0.002,-0.02 -0.002,-0.01 -0.003,-0.018 -0.003,-0.025 0,-0.007 0.001,-0.015 0.003,-0.025 0.001,-0.01 0.002,-0.017 0.002,-0.02 0.41,-0.407 0.619,-0.611 0.628,-0.613 0.008,-0.001 0.016,-0.002 0.022,-0.002 0.006,0 0.016,0.001 0.027,0.002 0.012,0.002 0.019,0.002 0.022,0.002 0.02,0.007 0.047,0.021 0.08,0.042 0.033,0.022 0.05,0.036 0.05,0.042 v 2.891 c 0.014,0 0.039,0.004 0.077,0.012 0.039,0.009 0.079,0.018 0.123,0.025 0.043,0.009 0.083,0.018 0.12,0.027 0.036,0.01 0.062,0.017 0.075,0.021 0.006,0.007 0.021,0.021 0.045,0.042 0.022,0.021 0.038,0.038 0.045,0.048 v 0.045 0.04 c -0.007,0.017 -0.022,0.036 -0.045,0.058 -0.023,0.021 -0.039,0.032 -0.045,0.032 h -1.136 c -0.007,0 -0.021,-0.011 -0.045,-0.032 -0.024,-0.021 -0.036,-0.037 -0.04,-0.045 -0.003,-0.009 -0.006,-0.018 -0.007,-0.028 0.002,-0.009 10e-4,-0.017 10e-4,-0.024 z"
   id="path3991"
   style="fill:#e5e5e5;stroke:#e5e5e5;stroke-width:0.25;stroke-miterlimit:10" />
</g>
<g
   id="g3993">
	<path
   d="M 8.444,34.434 C 8.437,34.434 8.423,34.416 8.399,34.381 8.376,34.346 8.363,34.324 8.359,34.314 8.356,34.304 8.353,34.294 8.352,34.284 8.35,34.274 8.349,34.265 8.349,34.259 c 0,-0.007 0.002,-0.022 0.005,-0.045 0.007,-0.013 0.021,-0.031 0.045,-0.055 0.024,-0.024 0.038,-0.035 0.045,-0.035 h 2.186 c 0.007,0 0.021,0.012 0.045,0.035 0.024,0.023 0.038,0.042 0.045,0.055 v 0.045 0.04 c -0.01,0.02 -0.026,0.048 -0.048,0.083 -0.021,0.035 -0.035,0.053 -0.042,0.053 H 9.71 v 3.015 c 0,0.007 -0.017,0.021 -0.051,0.045 -0.033,0.023 -0.055,0.037 -0.064,0.04 -0.009,0.003 -0.021,0.006 -0.032,0.008 -0.012,10e-4 -0.021,0.002 -0.028,0.002 -0.006,0 -0.02,-0.002 -0.04,-0.005 C 9.475,37.533 9.448,37.519 9.413,37.495 9.378,37.471 9.36,37.457 9.36,37.45 V 34.435 H 8.444 z"
   id="path3995"
   style="fill:#e5e5e5;stroke:#e5e5e5;stroke-width:0.25;stroke-miterlimit:10" />
	<path
   d="m 11.369,37.409 c 0,-0.007 0.002,-0.021 0.005,-0.045 0.007,-0.01 0.021,-0.026 0.043,-0.048 0.021,-0.021 0.037,-0.035 0.047,-0.042 0.014,-0.004 0.036,-0.011 0.067,-0.021 0.032,-0.01 0.067,-0.019 0.105,-0.027 0.038,-0.008 0.074,-0.017 0.107,-0.025 0.033,-0.008 0.057,-0.012 0.07,-0.012 v -2.625 c -0.014,0 -0.037,-0.004 -0.07,-0.012 C 11.71,34.544 11.674,34.535 11.636,34.527 11.598,34.519 11.563,34.51 11.531,34.5 11.5,34.49 11.477,34.482 11.464,34.475 c -0.01,-0.003 -0.025,-0.016 -0.047,-0.038 -0.022,-0.021 -0.034,-0.035 -0.038,-0.04 -0.003,-0.005 -0.006,-0.013 -0.007,-0.025 -0.002,-0.012 -0.003,-0.021 -0.003,-0.027 0,-0.007 10e-4,-0.015 0.003,-0.025 10e-4,-0.01 0.002,-0.017 0.002,-0.02 0.007,-0.013 0.021,-0.031 0.045,-0.052 0.024,-0.021 0.038,-0.033 0.045,-0.033 H 12.6 c 0.006,0 0.021,0.011 0.045,0.033 0.022,0.021 0.038,0.039 0.045,0.052 v 0.045 0.045 c -0.007,0.01 -0.022,0.026 -0.045,0.047 -0.023,0.022 -0.039,0.034 -0.045,0.038 -0.014,0.007 -0.036,0.015 -0.068,0.025 -0.031,0.01 -0.066,0.019 -0.104,0.027 -0.038,0.009 -0.074,0.017 -0.107,0.025 -0.033,0.008 -0.057,0.012 -0.07,0.012 v 2.625 c 0.014,0 0.037,0.004 0.07,0.012 0.033,0.009 0.069,0.018 0.107,0.025 0.038,0.009 0.073,0.018 0.104,0.027 0.032,0.01 0.055,0.017 0.068,0.021 0.006,0.007 0.021,0.021 0.045,0.042 0.022,0.021 0.038,0.038 0.045,0.048 v 0.045 0.04 c -0.007,0.017 -0.022,0.036 -0.045,0.058 -0.023,0.021 -0.039,0.032 -0.045,0.032 h -1.136 c -0.007,0 -0.021,-0.011 -0.045,-0.032 -0.024,-0.021 -0.036,-0.037 -0.04,-0.045 -0.003,-0.009 -0.006,-0.018 -0.007,-0.028 -0.002,-0.01 -0.003,-0.018 -0.003,-0.025 z"
   id="path3997"
   style="fill:#e5e5e5;stroke:#e5e5e5;stroke-width:0.25;stroke-miterlimit:10" />
	<path
   d="m 15.09,34.124 0.615,0.615 c 0,0.816 -0.01,1.236 -0.03,1.258 -0.02,0.021 -0.044,0.045 -0.072,0.072 -0.028,0.026 -0.058,0.055 -0.088,0.085 -0.03,0.03 -0.055,0.054 -0.075,0.069 -0.026,0.023 -0.059,0.053 -0.097,0.088 -0.039,0.035 -0.076,0.069 -0.113,0.103 -0.036,0.033 -0.083,0.073 -0.14,0.12 h -1.445 v 0.915 c 0,0.007 -0.017,0.021 -0.05,0.045 -0.033,0.024 -0.06,0.038 -0.08,0.045 -0.003,0 -0.01,10e-4 -0.02,0.003 -0.011,10e-4 -0.019,0.002 -0.025,0.002 -0.006,0 -0.02,-0.002 -0.04,-0.005 C 13.413,37.532 13.394,37.518 13.372,37.494 13.35,37.47 13.34,37.456 13.34,37.449 v -3.325 h 1.75 z m -1.401,2.016 c 0.817,0 1.239,-0.011 1.268,-0.031 0.028,-0.02 0.062,-0.043 0.098,-0.072 0.037,-0.027 0.074,-0.057 0.112,-0.087 0.039,-0.03 0.071,-0.055 0.098,-0.075 0.014,-0.01 0.032,-0.026 0.056,-0.047 0.022,-0.022 0.034,-0.034 0.034,-0.038 v -0.965 l -0.35,-0.35 H 13.69 v 1.665 z"
   id="path3999"
   style="fill:#e5e5e5;stroke:#e5e5e5;stroke-width:0.25;stroke-miterlimit:10" />
</g>
<line
   style="fill:none;stroke:#dedad6;stroke-width:0.5;stroke-miterlimit:10"
   x1="45"
   y1="14.399"
   x2="45"
   y2="9"
   id="line4001" />
<line
   style="fill:none;stroke:#dedad6;stroke-width:0.5;stroke-miterlimit:10"
   x1="45"
   y1="23.399"
   x2="45"
   y2="18"
   id="line4003" />
<line
   style="fill:none;stroke:#dedad6;stroke-width:0.5;stroke-miterlimit:10"
   x1="45"
   y1="34.200001"
   x2="45"
   y2="27"
   id="line4005" />
<polyline
   style="fill:none;stroke:#dedad6;stroke-width:0.5;stroke-miterlimit:10"
   points="45,37.799 45,42.3 27,42.3 27,41.4 "
   id="polyline4007" />
<line
   style="fill:none;stroke:#dedad6;stroke-width:0.5;stroke-miterlimit:10"
   x1="27"
   y1="9"
   x2="27"
   y2="37.799"
   id="line4009" />
<linearGradient
   x1="29.144501"
   y1="3.6724"
   x2="43.545898"
   y2="3.6724"
   id="SVGID_1_"
   gradientUnits="userSpaceOnUse">
	<stop
   id="stop4012"
   style="stop-color:#9a9a9b;stop-opacity:1"
   offset="0" />
	<stop
   id="stop4014"
   style="stop-color:#747374;stop-opacity:1"
   offset="0.1481" />
	<stop
   id="stop4016"
   style="stop-color:#565557;stop-opacity:1"
   offset="0.30199999" />
	<stop
   id="stop4018"
   style="stop-color:#454547;stop-opacity:1"
   offset="0.42469999" />
	<stop
   id="stop4020"
   style="stop-color:#3f3f41;stop-opacity:1"
   offset="0.5" />
	<stop
   id="stop4022"
   style="stop-color:#454547;stop-opacity:1"
   offset="0.57529998" />
	<stop
   id="stop4024"
   style="stop-color:#565557;stop-opacity:1"
   offset="0.69800001" />
	<stop
   id="stop4026"
   style="stop-color:#747374;stop-opacity:1"
   offset="0.85189998" />
	<stop
   id="stop4028"
   style="stop-color:#9a9a9b;stop-opacity:1"
   offset="1" />
</linearGradient>
<path
   d="M 42.546,0.972 H 30.145 c -0.552,0 -1,0.448 -1,1 v 4.4 h 14.401 v -4.4 c 0,-0.552 -0.447,-1 -1,-1 z"
   id="path4030"
   style="fill:url(#SVGID_1_)" />
<linearGradient
   x1="44.660198"
   y1="16.216801"
   x2="47.900398"
   y2="16.216801"
   id="SVGID_2_"
   gradientUnits="userSpaceOnUse">
	<stop
   id="stop4033"
   style="stop-color:#9a9a9b;stop-opacity:1"
   offset="0.69999999" />
	<stop
   id="stop4035"
   style="stop-color:#ffffff;stop-opacity:1"
   offset="1" />
</linearGradient>
<rect
   width="3.24"
   height="3.24"
   x="44.66"
   y="14.597"
   id="rect4037"
   style="fill:url(#SVGID_2_)" />
<linearGradient
   x1="44.660198"
   y1="25.200199"
   x2="47.900398"
   y2="25.200199"
   id="SVGID_3_"
   gradientUnits="userSpaceOnUse">
	<stop
   id="stop4040"
   style="stop-color:#9a9a9b;stop-opacity:1"
   offset="0.69999999" />
	<stop
   id="stop4042"
   style="stop-color:#ffffff;stop-opacity:1"
   offset="1" />
</linearGradient>
<rect
   width="3.24"
   height="3.24"
   x="44.66"
   y="23.58"
   id="rect4044"
   style="fill:url(#SVGID_3_)" />
<linearGradient
   x1="44.660198"
   y1="36"
   x2="47.900398"
   y2="36"
   id="SVGID_4_"
   gradientUnits="userSpaceOnUse">
	<stop
   id="stop4047"
   style="stop-color:#9a9a9b;stop-opacity:1"
   offset="0.69999999" />
	<stop
   id="stop4049"
   style="stop-color:#ffffff;stop-opacity:1"
   offset="1" />
</linearGradient>
<rect
   width="3.24"
   height="3.24"
   x="44.66"
   y="34.380001"
   id="rect4051"
   style="fill:url(#SVGID_4_)" />
<linearGradient
   x1="24.825199"
   y1="39.600101"
   x2="28.065399"
   y2="39.600101"
   id="SVGID_5_"
   gradientUnits="userSpaceOnUse">
	<stop
   id="stop4054"
   style="stop-color:#ffffff;stop-opacity:1"
   offset="0" />
	<stop
   id="stop4056"
   style="stop-color:#9a9a9b;stop-opacity:1"
   offset="0.30000001" />
</linearGradient>
<rect
   width="3.24"
   height="3.24"
   x="24.825001"
   y="37.98"
   id="rect4058"
   style="fill:url(#SVGID_5_)" />
<g
   transform="translate(116.3533,752.1186)"
   id="g6078">
	<path
   d="m -93.642,-718.867 c 0,0 0.127,0.539 -0.279,0.614 -0.284,0.05 -0.74,-0.231 -0.971,-0.511 -0.283,-0.346 -0.248,-0.618 -0.026,-0.859 0.331,-0.366 0.897,-0.224 0.897,-0.224 0,0 -1.039,-0.913 -2.121,-0.166 -0.965,0.663 -0.688,1.568 0.182,2.356 0.785,0.715 0.159,1.496 -0.631,1.395 -0.542,-0.068 -0.763,-0.502 -0.634,-0.77 0.112,-0.229 0.501,-0.367 0.501,-0.367 0,0 -0.446,-0.184 -0.972,0.016 -0.472,0.178 -0.862,0.568 -0.83,1.545 v 4.531 c 0,0 0.487,-0.602 1.062,-1.215 0.643,-0.689 0.936,-1.156 1.596,-1.102 1.246,0.078 2.149,-0.479 2.763,-1.365 1.177,-1.71 0.255,-3.623 -0.537,-3.878"
   id="path6080"
   style="fill:#e5e5e5" />
</g>
<rect
   width="16.559999"
   height="35.639"
   x="28.065001"
   y="6.3730001"
   id="rect4062"
   style="fill:#383838" />
<polygon
   points="41.841,38.139 41.841,37.42 41.84,37.42 36.8,37.42 36.8,30.94 41.841,30.94 41.841,30.22 43.28,30.22 43.28,38.139 "
   id="polygon4064"
   style="fill:#282627" />
<polygon
   points="41.841,26.18 41.841,25.461 41.84,25.461 38.24,25.461 38.24,18.981 41.841,18.981 41.841,18.261 43.28,18.261 43.28,26.18 "
   id="polygon4066"
   style="fill:#282627" />
<polygon
   points="41.841,17.279 41.841,16.559 41.84,16.559 38.24,16.559 38.24,10.079 41.841,10.079 41.841,9.359 43.28,9.359 43.28,17.279 "
   id="polygon4068"
   style="fill:#282627" />
<linearGradient
   x1="39.957001"
   y1="34.179699"
   x2="42.835899"
   y2="34.179699"
   id="SVGID_6_"
   gradientUnits="userSpaceOnUse">
	<stop
   id="stop4071"
   style="stop-color:#ffffff;stop-opacity:1"
   offset="0" />
	<stop
   id="stop4073"
   style="stop-color:#faf9f9;stop-opacity:1"
   offset="0.1751" />
	<stop
   id="stop4075"
   style="stop-color:#eeeeee;stop-opacity:1"
   offset="0.31560001" />
	<stop
   id="stop4077"
   style="stop-color:#dededf;stop-opacity:1"
   offset="0.44389999" />
	<stop
   id="stop4079"
   style="stop-color:#d4d5d7;stop-opacity:1"
   offset="0.5" />
	<stop
   id="stop4081"
   style="stop-color:#dededf;stop-opacity:1"
   offset="0.55610001" />
	<stop
   id="stop4083"
   style="stop-color:#eeeeee;stop-opacity:1"
   offset="0.68440002" />
	<stop
   id="stop4085"
   style="stop-color:#faf9f9;stop-opacity:1"
   offset="0.82489997" />
	<stop
   id="stop4087"
   style="stop-color:#ffffff;stop-opacity:1"
   offset="1" />
</linearGradient>
<rect
   width="2.8789999"
   height="5.7600002"
   x="39.957001"
   y="31.299999"
   id="rect4089"
   style="fill:url(#SVGID_6_)" />
<linearGradient
   x1="39.957001"
   y1="22.220699"
   x2="42.835899"
   y2="22.220699"
   id="SVGID_7_"
   gradientUnits="userSpaceOnUse">
	<stop
   id="stop4092"
   style="stop-color:#ffffff;stop-opacity:1"
   offset="0" />
	<stop
   id="stop4094"
   style="stop-color:#faf9f9;stop-opacity:1"
   offset="0.1751" />
	<stop
   id="stop4096"
   style="stop-color:#eeeeee;stop-opacity:1"
   offset="0.31560001" />
	<stop
   id="stop4098"
   style="stop-color:#dededf;stop-opacity:1"
   offset="0.44389999" />
	<stop
   id="stop4100"
   style="stop-color:#d4d5d7;stop-opacity:1"
   offset="0.5" />
	<stop
   id="stop4102"
   style="stop-color:#dededf;stop-opacity:1"
   offset="0.55610001" />
	<stop
   id="stop4104"
   style="stop-color:#eeeeee;stop-opacity:1"
   offset="0.68440002" />
	<stop
   id="stop4106"
   style="stop-color:#faf9f9;stop-opacity:1"
   offset="0.82489997" />
	<stop
   id="stop4108"
   style="stop-color:#ffffff;stop-opacity:1"
   offset="1" />
</linearGradient>
<rect
   width="2.8789999"
   height="5.7600002"
   x="39.957001"
   y="19.341"
   id="rect4110"
   style="fill:url(#SVGID_7_)" />
<linearGradient
   x1="39.957001"
   y1="13.3188"
   x2="42.835899"
   y2="13.3188"
   id="SVGID_8_"
   gradientUnits="userSpaceOnUse">
	<stop
   id="stop4113"
   style="stop-color:#ffffff;stop-opacity:1"
   offset="0" />
	<stop
   id="stop4115"
   style="stop-color:#faf9f9;stop-opacity:1"
   offset="0.1751" />
	<stop
   id="stop4117"
   style="stop-color:#eeeeee;stop-opacity:1"
   offset="0.31560001" />
	<stop
   id="stop4119"
   style="stop-color:#dededf;stop-opacity:1"
   offset="0.44389999" />
	<stop
   id="stop4121"
   style="stop-color:#d4d5d7;stop-opacity:1"
   offset="0.5" />
	<stop
   id="stop4123"
   style="stop-color:#dededf;stop-opacity:1"
   offset="0.55610001" />
	<stop
   id="stop4125"
   style="stop-color:#eeeeee;stop-opacity:1"
   offset="0.68440002" />
	<stop
   id="stop4127"
   style="stop-color:#faf9f9;stop-opacity:1"
   offset="0.82489997" />
	<stop
   id="stop4129"
   style="stop-color:#ffffff;stop-opacity:1"
   offset="1" />
</linearGradient>
<rect
   width="2.8789999"
   height="5.7600002"
   x="39.957001"
   y="10.439"
   id="rect4131"
   style="fill:url(#SVGID_8_)" />
</svg>